Coordinates
nRows=7
nColumns=38

# SIMM Motion File Header:
name Coordinates
datacolumns 38
datarows 7
otherdata 1
range 2.80680000000000000000 2.81280000000000020000

Units are S.I. units (second, meters, Newtons, ...)
Angles are in degrees.

endheader
time	pelvis_tilt	pelvis_list	pelvis_rotation	pelvis_tx	pelvis_ty	pelvis_tz	hip_flexion_r	hip_adduction_r	hip_rotation_r	knee_angle_r	ankle_angle_r	subtalar_angle_r	mtp_angle_r	hip_flexion_l	hip_adduction_l	hip_rotation_l	knee_angle_l	ankle_angle_l	subtalar_angle_l	mtp_angle_l	lumbar_extension	lumbar_bending	lumbar_rotation	arm_flex_r	arm_add_r	arm_rot_r	elbow_flex_r	pro_sup_r	wrist_flex_r	wrist_dev_r	arm_flex_l	arm_add_l	arm_rot_l	elbow_flex_l	pro_sup_l	wrist_flex_l	wrist_dev_l
      2.80680000000000000000	     -0.74543312638868908000	     -8.62360369635948840000	    -10.00370198426750600000	      0.90734121478644270000	      1.02210405905229650000	     -0.31352918830492382000	     11.89559477831837100000	     17.12754628004418200000	      5.71344838251006150000	    -43.50703803270066300000	     28.82816234781331500000	      0.00000000000001265847	     -0.00000000000000862428	     25.09166113821005000000	     -8.83754076939795400000	     -1.21903321545402240000	    -98.30589200478253500000	      4.94549564599507810000	     -0.00000000000000173523	      0.00000000000000434193	    -20.69946088633744100000	      9.95985583628581490000	      9.27644892469085390000	     -3.88464276140899130000	    -31.05145390871474500000	     -2.88962577936202520000	    101.83485297695785000000	    128.15509372255906000000	     -0.00000000000000030438	      0.00000000000000390480	    -14.42047734355904800000	    -19.46053750118958100000	     14.43874883622067900000	    104.59503419196457000000	    100.75534501964489000000	     -0.00000000000000000013	      0.00000000000000320206
      2.80780000000000030000	     -0.79573652037062292000	     -8.54389728036584550000	    -10.06561769492614500000	      0.90721124096068362000	      1.02238939642601250000	     -0.31325819233963903000	     11.65550393729432200000	     17.05225850170534600000	      5.86434623997463160000	    -43.32407380075181200000	     28.82849692115766200000	      0.00000000000001274527	     -0.00000000000000890962	     25.37892106256909100000	     -8.80961415887340140000	     -1.21093186608287340000	    -98.18735960797654600000	      5.01692655362708170000	     -0.00000000000000171014	      0.00000000000000445378	    -20.62737416757859100000	      9.85035274292897610000	      9.45487213464323690000	     -3.78711415099977340000	    -31.04358897667021800000	     -2.91569762263458630000	    102.08869251055617000000	    127.98583699890551000000	     -0.00000000000000030202	      0.00000000000000387981	    -14.53448605180984100000	    -19.50639950031447600000	     14.44360910381044900000	    104.74284013732421000000	    100.90816427283515000000	      0.00000000000000002116	      0.00000000000000327296
      2.80880000000000020000	     -0.84697126047376070000	     -8.46203541035083790000	    -10.12757492828733200000	      0.90708760574736214000	      1.02268033298162430000	     -0.31298633470770837000	     11.41542148564069200000	     16.97423068789805000000	      6.01587853879306870000	    -43.13822916359185200000	     28.82469145252351000000	      0.00000000000001280533	     -0.00000000000000916589	     25.66466305888332800000	     -8.78013812861261480000	     -1.20491615928008630000	    -98.06223711626120100000	      5.08953973901684180000	     -0.00000000000000169305	      0.00000000000000457300	    -20.55250469696086300000	      9.73875929711271660000	      9.63228658334393730000	     -3.69165429249440220000	    -31.03534516757333600000	     -2.94156528710721640000	    102.34386670484400000000	    127.81591596568477000000	     -0.00000000000000030046	      0.00000000000000384217	    -14.65014323886156700000	    -19.55284239133535000000	     14.44617125332383800000	    104.89291538987301000000	    101.06207708318595000000	      0.00000000000000004707	      0.00000000000000334234
      2.80980000000000010000	     -0.89908039384889948000	     -8.37807474651349440000	    -10.18949181516359700000	      0.90697033315195164000	      1.02297689937618300000	     -0.31271379732058774000	     11.17536612384927100000	     16.89347442913271300000	      6.16791045690628880000	    -42.94958695109655600000	     28.81662981606798400000	      0.00000000000001285518	     -0.00000000000000942763	     25.94880935620912900000	     -8.74915268817205850000	     -1.20093588388074530000	    -97.93054750262071200000	      5.16327025048354660000	     -0.00000000000000168160	      0.00000000000000469725	    -20.47492927196643800000	      9.62516123286479800000	      9.80864592967687620000	     -3.59827508931522290000	    -31.02670823637675200000	     -2.96723743423340110000	    102.60031003685569000000	    127.64542019444303000000	     -0.00000000000000029864	      0.00000000000000379658	    -14.76737448718167100000	    -19.59983211432964400000	     14.44648994253194700000	    105.04502581087024000000	    101.21677993817563000000	      0.00000000000000007482	      0.00000000000000341012
      2.81080000000000000000	     -0.95200319072060013000	     -8.29207235986610060000	    -10.25128805033925700000	      0.90685944340937918000	      1.02327913129356050000	     -0.31244075852571279000	     10.93535131016287600000	     16.81000317047592000000	      6.32030976795559150000	    -42.75822987092839600000	     28.80419774334779200000	      0.00000000000001287793	     -0.00000000000000965986	     26.23127845289276600000	     -8.71669746289253130000	     -1.19894251976723120000	    -97.79231382104040900000	      5.23804773337883490000	     -0.00000000000000167447	      0.00000000000000482984	    -20.39473124216023700000	      9.50964222019911890000	      9.98390510448899350000	     -3.50698814627397630000	    -31.01766468650088600000	     -2.99272017318656710000	    102.85796090337124000000	    127.47442991486608000000	     -0.00000000000000029734	      0.00000000000000375425	    -14.88610956320928700000	    -19.64733545668444500000	     14.44461963351850800000	    105.19894491145072000000	    101.37197962294293000000	      0.00000000000000010663	      0.00000000000000347607
      2.81180000000000030000	     -1.00567561506482540000	     -8.20408561970995190000	    -10.31288487570300200000	      0.90675495303496789000	      1.02358706845197030000	     -0.31216739323746823000	     10.69538571951929000000	     16.72383209049534300000	      6.47294668260373650000	    -42.56424030425012700000	     28.78728237934781100000	      0.00000000000001291547	     -0.00000000000000994864	     26.51198568719026100000	     -8.68281148786216940000	     -1.19888916168786320000	    -97.64755928553765300000	      5.31379663305522240000	     -0.00000000000000167769	      0.00000000000000497447	    -20.31199987640881200000	      9.39228385793018820000	     10.15802003714294500000	     -3.41780447949286170000	    -31.00820180449620600000	     -3.01801700188018710000	    103.11676134444720000000	    127.30301666623848000000	     -0.00000000000000029640	      0.00000000000000372130	    -15.00628253135457300000	    -19.69531995428489400000	     14.44061419240180300000	    105.35445412616028000000	    101.52739402849419000000	      0.00000000000000013200	      0.00000000000000354192
      2.81280000000000020000	     -1.06003081413426780000	     -8.11417208092255040000	    -10.37420504387204400000	      0.90665687483512392000	      1.02390075368757440000	     -0.31189387309273148000	     10.45547373924392800000	     16.63497799424189300000	      6.62569365586476880000	    -42.36770025490377400000	     28.76577283121053700000	      0.00000000000001294932	     -0.00000000000001023338	     26.79084382878940200000	     -8.64753299452102020000	     -1.20073041943575290000	    -97.49630736191787200000	      5.39043641151999340000	     -0.00000000000000168227	      0.00000000000000512578	    -20.22682971192097400000	      9.27316567868223270000	     10.33094737258080000000	     -3.33073422462106410000	    -30.99830769522509800000	     -3.04312876235648890000	    103.37665675914876000000	    127.13124399608665000000	     -0.00000000000000029577	      0.00000000000000368152	    -15.12783184234703500000	    -19.74375379515055700000	     14.43452650012050100000	    105.51134306122255000000	    101.68275288028137000000	      0.00000000000000014209	      0.00000000000000360739
